#!OML:ASF I:\salsa\salsa 7_09\Patient 1\Session 1\dancermale.ASF
:FULLY-SPECIFIED
:DEGREES
2887
root -9.97038 17.3705 1.07454 -2681.04 434.983 913.2
lowerback 176.688 -180.407 -176.963
upperback -0.364795 0.453193 3.37057
thorax 1.47801 0.26764 1.78073
lowerneck -7.31893 -4.03027 -0.505774
upperneck 30.5855 -3.93069 -1.56927
head 11.0335 -1.54022 -0.834893
rclavicle 2.98177e-014 5.00937e-014
rhumerus -194.938 181.496 -260.244
rradius 65.023
rwrist -11.5187
rhand -30.5465 -0.292936
rfingers 7.12502
rthumb -3.84518 -30.238
lclavicle 2.98177e-014 5.00937e-014
lhumerus 342.04 -7.1588 -298.965
lradius 113.524
lwrist 71.9326
lhand -24.3303 61.3781
lfingers 7.12502
lthumb 2.15837 -2251.35
rfemur -11.6685 -7.36431 24.41
rtibia 25.01
rfoot -16.8329 -0.675456
rtoes -13.7995
lfemur -29.7883 -4.24563 -1.61289
ltibia 35.585
lfoot -16.8818 5.06507
ltoes -9.83737
2888
root -9.87173 17.3905 0.931989 -2680.25 435.202 913.987
lowerback 176.908 -180.418 -176.873
upperback -0.547893 0.492054 3.54576
thorax 1.16504 0.287932 1.90912
lowerneck -7.17649 -4.23921 -0.654322
upperneck 31.0307 -4.14662 -1.60319
head 11.1801 -1.63891 -0.846721
rclavicle 7.40473e-015 6.36111e-015
rhumerus -194.171 181.623 -260.078
rradius 64.0269
rwrist -11.7056
rhand -29.8414 0.0122876
rfingers 7.12502
rthumb -3.16428 -29.944
lclavicle 7.40473e-015 6.36111e-015
lhumerus 343.026 -6.06028 -301.054
lradius 113.541
lwrist 72.611
lhand -23.8259 62.0498
lfingers 7.12502
lthumb 2.64548 -2252.01
rfemur -10.687 -6.87602 24.0709
rtibia 23.965
rfoot -16.5382 -0.664819
rtoes -12.9831
lfemur -29.0539 -6.25969 -0.441546
ltibia 30.3061
lfoot -16.3128 4.18734
ltoes -14.398
2889
root -9.77202 17.4019 0.77842 -2679.78 435.36 914.482
lowerback 176.906 -180.37 -176.793
upperback -0.57437 0.431428 3.71636
thorax 1.1386 0.260381 2.03792
lowerneck -7.08848 -4.43045 -0.827011
upperneck 31.3822 -4.35299 -1.61274
head 11.3042 -1.73876 -0.845449
rclavicle 1.53064e-014 3.4191e-014
rhumerus -193.237 181.908 -259.954
rradius 63.0476
rwrist -11.6508
rhand -28.9879 0.374742
rfingers 7.12502
rthumb -2.34007 -29.5922
lclavicle 1.53064e-014 3.4191e-014
lhumerus 344.103 -4.8596 -302.846
lradius 113.492
lwrist 73.3624
lhand -23.6492 62.4656
lfingers 7.12502
lthumb 2.81619 -2252.43
rfemur -9.76716 -6.49985 23.6486
rtibia 23.157
rfoot -16.3959 -0.786994
rtoes -11.5965
lfemur -28.5177 -8.20821 0.465503
ltibia 25.9822
lfoot -16.0199 3.71267
ltoes -15.8691
2890
root -9.67312 17.4075 0.613517 -2679.3 435.536 914.792
lowerback 176.489 -180.3 -176.913
upperback -0.500647 0.319839 4.03147
thorax 1.44725 0.210324 2.431
lowerneck -7.33411 -4.60104 -1.13918
upperneck 31.8791 -4.48082 -1.69471
head 11.5586 -1.82797 -0.84891
rclavicle 2.5345e-015 7.95139e-015
rhumerus -192.14 181.89 -259.566
rradius 62.162
rwrist -11.8272
rhand -28.5638 0.563653
rfingers 7.12502
rthumb -1.93047 -29.4074
lclavicle 2.5345e-015 7.95139e-015
lhumerus 345.239 -3.45186 -304.086
lradius 113.295
lwrist 73.9506
lhand -23.7136 62.5757
lfingers 7.12502
lthumb 2.75397 -2252.54
rfemur -9.2068 -6.13147 23.1604
rtibia 22.6546
rfoot -16.253 -0.955884
rtoes -13.0997
lfemur -28.4549 -9.83106 1.10098
ltibia 22.7914
lfoot -15.9206 3.51119
ltoes -15.8247
2891
root -9.57441 17.4087 0.439188 -2678.29 435.946 915.543
lowerback 175.547 -180.221 -177.375
upperback -0.124626 0.167381 4.68406
thorax 2.36364 0.139919 3.37385
lowerneck -7.98069 -4.77116 -1.69415
upperneck 32.3491 -4.45531 -2.14868
head 11.8875 -1.93194 -0.943524
rclavicle 5.00937e-014 -3.81667e-014
rhumerus -190.578 181.288 -258.702
rradius 61.3
rwrist -12.2715
rhand -28.8357 0.442003
rfingers 7.12502
rthumb -2.19302 -29.5265
lclavicle 5.00937e-014 -3.81667e-014
lhumerus 346.356 -1.47636 -304.499
lradius 113.015
lwrist 74.3624
lhand -22.9998 63.3618
lfingers 7.12502
lthumb 3.44332 -2253.31
rfemur -8.945 -5.55286 22.6449
rtibia 22.4577
rfoot -16.0752 -0.934816
rtoes -16.8341
lfemur -28.5794 -9.78748 0.913917
ltibia 21.4657
lfoot -16.06 4.06178
ltoes -17.108
2892
root -9.47538 17.4064 0.259279 -2677.22 436.776 916.459
lowerback 175.292 -180.29 -177.129
upperback -0.098109 0.231163 4.65228
thorax 2.53243 0.175116 3.21021
lowerneck -8.25684 -4.91103 -1.81285
upperneck 32.9874 -4.57239 -2.19505
head 12.2085 -1.98876 -0.972528
rclavicle -4.54223e-014 3.02153e-014
rhumerus -189.859 181.211 -258.774
rradius 60.6257
rwrist -12.6153
rhand -28.7304 0.182112
rfingers 7.12502
rthumb -2.09136 -29.7874
lclavicle -4.54223e-014 3.02153e-014
lhumerus 347.049 -0.142345 -305.626
lradius 112.883
lwrist 75.1915
lhand -22.8111 63.4237
lfingers 7.12502
lthumb 3.62556 -2253.37
rfemur -8.8023 -4.63992 21.9234
rtibia 22.6363
rfoot -16.0501 -0.673636
rtoes -18.8662
lfemur -28.3625 -9.19429 0.319112
ltibia 20.421
lfoot -16.105 4.16406
ltoes -17.3497
2893
root -9.38185 17.4044 0.0583639 -2676.98 437.196 916.639
lowerback 175.148 -180.245 -176.895
upperback -0.106582 0.152578 4.73229
thorax 2.60776 0.140755 3.15828
lowerneck -8.60186 -5.18657 -2.91742
upperneck 33.9993 -4.90825 -1.39294
head 12.7763 -2.14533 -0.544626
rclavicle 1.39149e-015 -7.95139e-015
rhumerus -189.294 181.064 -258.53
rradius 59.955
rwrist -12.9561
rhand -28.8628 0.00742145
rfingers 7.12502
rthumb -2.21921 -29.9608
lclavicle 1.39149e-015 -7.95139e-015
lhumerus 347.493 1.11041 -306.126
lradius 112.788
lwrist 76.0322
lhand -21.9969 63.6648
lfingers 7.12502
lthumb 4.41172 -2253.6
rfemur -8.62945 -4.06323 21.075
rtibia 23.0332
rfoot -16.1326 -0.451968
rtoes -19.263
lfemur -28.2626 -8.23403 -0.901798
ltibia 20.3837
lfoot -15.1652 3.7229
ltoes -21.6482
2894
root -9.28574 17.4007 -0.151059 -2676.42 437.83 917.173
lowerback 175.183 -180.283 -176.304
upperback -0.207889 0.182125 4.55487
thorax 2.48434 0.16178 2.64188
lowerneck -8.48989 -5.27691 -2.88022
upperneck 34.5053 -5.02018 -1.3452
head 12.9703 -2.16533 -0.549451
rclavicle -2.68359e-015 -1.43125e-014
rhumerus -189.128 180.879 -258.736
rradius 59.1536
rwrist -12.5824
rhand -30.8091 0.0394024
rfingers 7.12502
rthumb -4.09876 -29.9009
lclavicle -2.68359e-015 -1.43125e-014
lhumerus 347.65 2.09984 -306.663
lradius 112.73
lwrist 76.7367
lhand -21.3769 64.5835
lfingers 7.12502
lthumb 5.01047 -2254.5
rfemur -8.51745 -3.35132 20.2298
rtibia 23.5755
rfoot -16.1314 -0.326542
rtoes -20.3757
lfemur -27.8458 -8.08922 -1.8238
ltibia 20.8746
lfoot -14.8656 2.16308
ltoes -20.1179
2895
root -9.1882 17.3989 -0.373088 -2676.15 438.247 917.27
lowerback 174.793 -180.197 -175.925
upperback -0.204303 0.0221891 4.61135
thorax 2.71007 0.0905113 2.48114
lowerneck -8.26808 -5.25893 -2.63636
upperneck 34.5858 -4.8602 -1.88248
head 12.9291 -2.1266 -0.772156
rclavicle 8.94531e-016 -3.18055e-015
rhumerus -188.666 180.837 -258.519
rradius 58.4823
rwrist -13.3929
rhand -30.5235 0.392671
rfingers 7.12502
rthumb -3.82301 -29.5528
lclavicle 8.94531e-016 -3.18055e-015
lhumerus 347.68 3.43915 -306.304
lradius 112.601
lwrist 77.1191
lhand -21.195 64.2811
lfingers 7.12502
lthumb 5.1861 -2254.2
rfemur -8.62108 -2.76032 19.397
rtibia 24.1988
rfoot -16.0123 -0.619537
rtoes -22.2968
lfemur -27.7419 -8.55758 -2.67904
ltibia 21.5774
lfoot -14.5228 0.224241
ltoes -17.2283
2896
root -9.08918 17.3993 -0.599936 -2676.39 438.555 916.832
lowerback 174.27 -180.032 -175.496
upperback -0.137118 -0.266466 4.59226
thorax 3.0754 -0.0422805 2.20333
lowerneck -8.08302 -5.24248 -2.31586
upperneck 34.6737 -4.68924 -2.51144
head 12.8942 -2.08559 -1.04373
rclavicle -2.49475e-014 -6.36111e-015
rhumerus -188.136 180.807 -258.391
rradius 57.8307
rwrist -13.9208
rhand -30.5034 0.357158
rfingers 7.12502
rthumb -3.80355 -29.5886
lclavicle -2.49475e-014 -6.36111e-015
lhumerus 347.621 4.85268 -305.723
lradius 112.394
lwrist 77.5993
lhand -21.1016 64.713
lfingers 7.12502
lthumb 5.27627 -2254.63
rfemur -8.78979 -2.09206 18.5413
rtibia 24.9509
rfoot -15.8363 -1.20626
rtoes -23.0751
lfemur -27.9125 -9.16523 -3.62185
ltibia 22.4561
lfoot -13.9109 -1.11891
ltoes -15.3231
2897
root -8.99062 17.401 -0.826879 -2676.95 438.898 916.15
lowerback 173.981 -179.875 -175.2
upperback -0.136854 -0.516448 4.59229
thorax 3.23717 -0.159193 2.01794
lowerneck -7.92901 -5.35486 -1.9353
upperneck 34.8835 -4.64972 -3.31156
head 12.911 -2.11143 -1.4125
rclavicle -8.84592e-015 2.38542e-014
rhumerus -187.824 181.096 -258.133
rradius 57.4546
rwrist -15.3068
rhand -29.3335 0.54956
rfingers 7.12502
rthumb -2.67376 -29.4134
lclavicle -8.84592e-015 2.38542e-014
lhumerus 347.076 5.8744 -305.045
lradius 112.293
lwrist 78.192
lhand -20.5095 64.6686
lfingers 7.12502
lthumb 5.84793 -2254.57
rfemur -8.98631 -1.39119 17.675
rtibia 25.8836
rfoot -15.6174 -1.99485
rtoes -22.6484
lfemur -28.1836 -9.47972 -4.6901
ltibia 23.4964
lfoot -13.2346 -1.13484
ltoes -16.1526
2898
root -8.88995 17.4048 -1.05336 -2678.5 439.19 914.598
lowerback 174.014 -179.779 -174.768
upperback -0.229935 -0.664465 4.32433
thorax 3.11364 -0.229937 1.48471
lowerneck -8.02819 -5.4929 -1.85977
upperneck 35.5995 -4.74635 -3.46358
head 13.2356 -2.13972 -1.51672
rclavicle -1.0138e-014 -7.63333e-014
rhumerus -188.032 181.735 -258.081
rradius 57.3194
rwrist -16.4734
rhand -29.0317 0.497032
rfingers 7.12502
rthumb -2.38231 -29.4694
lclavicle -1.0138e-014 -7.63333e-014
lhumerus 346.377 6.18076 -304.451
lradius 112.178
lwrist 78.7684
lhand -20.5911 64.6957
lfingers 7.12502
lthumb 5.76919 -2254.6
rfemur -9.11366 -0.969124 16.7145
rtibia 26.9948
rfoot -15.4153 -3.05517
rtoes -22.9244
lfemur -28.3886 -9.34317 -6.0801
ltibia 24.8042
lfoot -13.0143 -0.491491
ltoes -18.9397
2899
root -8.79109 17.4061 -1.28556 -2680.99 439.256 911.866
lowerback 173.659 -179.558 -174.543
upperback -0.316877 -0.996939 4.13557
thorax 3.21093 -0.391627 1.13257
lowerneck -8.10556 -5.57244 -1.83614
upperneck 36.1022 -4.74301 -3.68913
head 13.4676 -2.14785 -1.62423
rclavicle -1.64991e-014 -3.33958e-014
rhumerus -188.197 182.131 -257.832
rradius 57.3049
rwrist -17.7037
rhand -29.101 0.440149
rfingers 7.12502
rthumb -2.44923 -29.5255
lclavicle -1.64991e-014 -3.33958e-014
lhumerus 345.642 6.70874 -303.266
lradius 111.948
lwrist 79.0414
lhand -20.3838 65.378
lfingers 7.12502
lthumb 5.96926 -2255.27
rfemur -9.57481 -1.03667 15.6554
rtibia 28.3699
rfoot -15.2963 -4.32444
rtoes -22.2853
lfemur -28.9741 -8.87475 -7.74133
ltibia 26.3596
lfoot -13.2688 -0.375225
ltoes -21.2327
2900
root -8.68695 17.4057 -1.51404 -2683.54 439.471 909.394
lowerback 173.563 -179.38 -174.324
upperback -0.323671 -1.25761 3.92494
thorax 3.24365 -0.518758 0.767629
lowerneck -8.07957 -5.66008 -1.93774
upperneck 36.5261 -4.77248 -3.79121
head 13.6541 -2.17309 -1.66163
rclavicle -1.02374e-014 -2.38542e-014
rhumerus -188.432 182.61 -257.56
rradius 57.3518
rwrist -19.0807
rhand -28.9439 0.735482
rfingers 7.12502
rthumb -2.2975 -29.2319
lclavicle -1.02374e-014 -2.38542e-014
lhumerus 344.817 7.0923 -301.993
lradius 111.613
lwrist 79.0259
lhand -20.3423 65.5775
lfingers 7.12502
lthumb 6.00934 -2255.47
rfemur -9.74381 -0.940473 14.7507
rtibia 29.8845
rfoot -15.2579 -5.91828
rtoes -18.7366
lfemur -28.94 -8.12936 -9.48792
ltibia 27.525
lfoot -13.7186 -0.790721
ltoes -22.6776
